<svg xmlns="http://www.w3.org/2000/svg" viewBox="0 0 600 600">
  <path d="M248.8412 68.657 286.2318 32.2334 327.168 72.2026C361.3704 77.6694 392.0328 90.9244 420.1612 109.7544L460.614 110.8826 461.546 154.7604C486.2694 184.0694 498.2596 214.8766 502.3442 246.6136L537.9004 283.5374 503.256 320.9168C498.7544 355.3992 482.4388 387.155 462.2296 418.0124L461.7738 462.6856 416.189 461.318C388.7968 480.898 358.618 496.0988 322.7402 502.3442L286.2724 540.1796 247.9812 500.9768C209.538 494.5948 178.6164 478.4882 154.7604 459.9504L113.0502 460.4062 111.0086 455.2488 110.7902 444.6212 111.2268 417.1008C88.2826 385.0394 74.4552 354.1938 69.7448 324.5636L35.1002 284.449 67.9214 249.3488C75.3668 214.5524 91.5494 181.9592 112.3664 152.0252 112.8096 137.6946 111.7632 123.8706 113.2782 108.7198L154.9882 109.4034C192.3766 85.9022 221.0174 76.6158 248.8412 68.657Z" stroke="#000" stroke-width="2" fill="#0008"/>
</svg>